<?xml version="1.0" encoding="UTF-8" standalone="no"?>
<!DOCTYPE svg PUBLIC "-//W3C//DTD SVG 1.1//EN" "http://www.w3.org/Graphics/SVG/1.1/DTD/svg11.dtd">
<svg xmlns="http://www.w3.org/2000/svg" version="1.1" viewBox="0.00 0.00 48.00 49.00">
<g stroke-width="2.00" fill="none" stroke-linecap="butt">
<path stroke="#38dcf2" stroke-opacity="0.984" vector-effect="non-scaling-stroke" d="
  M 48.00 12.03
  L 14.85 12.08
  Q 14.36 12.08 14.24 12.55
  Q 14.07 13.26 13.78 13.22"
/>
<path stroke="#37dae8" stroke-opacity="0.965" vector-effect="non-scaling-stroke" d="
  M 9.85 20.15
  L 2.00 19.89
  Q 1.46 19.88 1.29 20.40
  L 0.00 24.40"
/>
</g>
<path fill="#38ddf8" fill-opacity="0.996" d="
  M 6.89 0.00
  L 41.47 0.00
  Q 46.47 1.33 48.00 6.14
  L 48.00 12.03
  L 14.85 12.08
  Q 14.36 12.08 14.24 12.55
  Q 14.07 13.26 13.78 13.22
  Q 12.77 12.58 12.16 13.41
  Q 9.84 16.56 9.85 20.15
  L 2.00 19.89
  Q 1.46 19.88 1.29 20.40
  L 0.00 24.40
  L 0.00 6.79
  Q 1.36 1.25 6.89 0.00
  Z"
/>
<path fill="#37daeb" fill-opacity="0.969" d="
  M 48.00 12.03
  L 48.00 28.78
  Q 47.85 27.86 47.53 27.32
  A 1.06 1.03 -11.5 0 0 46.75 26.82
  Q 44.47 26.59 42.48 27.35
  Q 41.22 26.18 38.65 26.50
  A 1.09 1.07 62.4 0 1 37.79 26.22
  Q 36.22 24.75 35.49 22.20
  Q 35.35 21.72 35.85 21.68
  Q 37.00 21.61 37.40 20.50
  A 1.90 1.89 -77.5 0 0 35.79 17.96
  Q 33.93 17.79 33.73 19.66
  Q 33.67 20.21 33.15 20.03
  C 28.80 18.58 21.84 21.72 17.58 23.13
  Q 15.46 23.83 13.65 23.08
  Q 12.88 22.76 13.64 22.40
  Q 16.77 20.95 18.10 17.85
  Q 19.17 15.34 16.65 16.39
  Q 15.40 16.91 14.43 17.93
  Q 13.90 18.48 13.88 17.72
  L 13.78 13.22
  Q 14.07 13.26 14.24 12.55
  Q 14.36 12.08 14.85 12.08
  L 48.00 12.03
  Z"
/>
<path fill="#35d7d6" fill-opacity="0.929" d="
  M 9.85 20.15
  L 4.99 24.97
  A 1.15 1.15 0.0 0 0 5.31 26.83
  C 8.02 28.10 10.51 26.95 12.61 29.77
  Q 12.91 30.17 12.55 30.53
  Q 10.38 32.62 7.65 32.97
  L 1.05 33.09
  Q 0.53 33.10 0.36 33.60
  L 0.00 34.65
  L 0.00 24.40
  L 1.29 20.40
  Q 1.46 19.88 2.00 19.89
  L 9.85 20.15
  Z"
/>
<path fill="#32d0b2" fill-opacity="0.859" d="
  M 48.00 28.78
  L 48.00 42.39
  Q 45.61 48.19 40.01 48.21
  Q 24.49 48.26 9.01 48.18
  Q 1.78 48.14 0.00 41.37
  L 0.00 34.65
  L 0.36 33.60
  Q 0.53 33.10 1.05 33.09
  L 7.65 32.97
  Q 6.58 33.74 6.41 34.29
  A 0.52 0.51 12.7 0 0 6.83 34.94
  C 10.02 35.44 13.60 33.33 16.41 32.04
  Q 20.08 30.36 25.36 30.25
  Q 28.02 30.20 31.12 29.36
  Q 31.67 29.21 32.22 29.37
  Q 35.71 30.39 39.61 29.74
  A 3.01 3.00 72.9 0 1 42.85 31.46
  Q 43.39 32.65 44.40 33.56
  A 0.83 0.83 0.0 0 0 45.79 32.94
  Q 45.80 29.97 42.48 27.35
  Q 44.47 26.59 46.75 26.82
  A 1.06 1.03 -11.5 0 1 47.53 27.32
  Q 47.85 27.86 48.00 28.78
  Z"
/>
</svg>
